<?xml version="1.0" encoding="iso-8859-1"?>
<!-- Uploaded to: SVG Repo, www.svgrepo.com, Generator: SVG Repo Mixer Tools -->
<!DOCTYPE svg PUBLIC "-//W3C//DTD SVG 1.1//EN" "http://www.w3.org/Graphics/SVG/1.1/DTD/svg11.dtd">
<svg fill="#000000" version="1.1" id="Capa_1" xmlns="http://www.w3.org/2000/svg" xmlns:xlink="http://www.w3.org/1999/xlink" 
	 width="800px" height="800px" viewBox="0 0 468.873 468.873"
	 xml:space="preserve">
<g>
	<g>
		<path d="M369.992,10.059c-48.285,0-88.48,34.613-97.145,80.381H13.25C5.932,90.439,0,96.375,0,103.691v242.48
			c0,7.32,5.932,13.252,13.25,13.252h202.674v86.138c0,5.359,3.226,10.192,8.18,12.244c1.639,0.678,3.361,1.009,5.068,1.009
			c3.446,0,6.838-1.348,9.373-3.883l96.172-95.508h56.975c7.32,0,13.252-5.932,13.252-13.252V201.458
			c37.361-14.121,63.93-50.215,63.93-92.52C468.875,54.33,424.604,10.059,369.992,10.059z M369.992,182.821
			c-40.736,0-73.879-33.143-73.879-73.882c0-40.738,33.143-73.881,73.879-73.881c40.738,0,73.883,33.143,73.883,73.881
			C443.875,149.679,410.73,182.821,369.992,182.821z"/>
		<path d="M412.129,98.303H380.49V66.666c0-5.8-4.699-10.502-10.502-10.502c-5.801,0-10.502,4.702-10.502,10.502v31.637H327.85
			c-5.801,0-10.502,4.702-10.502,10.502c0,5.8,4.701,10.502,10.502,10.502h31.637v31.637c0,5.8,4.701,10.502,10.502,10.502
			c5.803,0,10.502-4.702,10.502-10.502v-31.637h31.639c5.801,0,10.502-4.702,10.502-10.502
			C422.631,103.004,417.93,98.303,412.129,98.303z"/>
	</g>
</g>
</svg>